PathFileType	4	(X/Y/Z)	PS_ngait_og_ss3.trc	
DataRate	CameraRate	NumFrames	NumMarkers	Units	OrigDataRate	OrigDataStartFrame	OrigNumFrames	
120.00	120.00	7	39	mm	120.00	626	130	
Frame#	Time	Sternum			Neck			RShoulder			LShoulder			Xiphoid			Thoracic			RAsis			LAsis			RPsis			LPsis			LThighSuperior			LThighInferior			LThighLateral			LShankSuperior			LShankInferior			LShankLateral			RThighSuperior			RThighInferior			RThighLateral			RShankSuperior			RShankInferior			RHeel			RToe			RMidfootMedial			RMidfootLateral			RHindfoot			RMidfootSuperior			RToeMedial			RToeLateral			LHeel			LToe			LMidfootMedial			LMidfootLateral			LHindfoot			LMidfootSuperior			LToeMedial			LToeLateral			Sacral			RShankLateral			
		X1	Y1	Z1	X2	Y2	Z2	X3	Y3	Z3	X4	Y4	Z4	X5	Y5	Z5	X6	Y6	Z6	X7	Y7	Z7	X8	Y8	Z8	X9	Y9	Z9	X10	Y10	Z10	X11	Y11	Z11	X12	Y12	Z12	X13	Y13	Z13	X14	Y14	Z14	X15	Y15	Z15	X16	Y16	Z16	X17	Y17	Z17	X18	Y18	Z18	X19	Y19	Z19	X20	Y20	Z20	X21	Y21	Z21	X22	Y22	Z22	X23	Y23	Z23	X24	Y24	Z24	X25	Y25	Z25	X26	Y26	Z26	X27	Y27	Z27	X28	Y28	Z28	X29	Y29	Z29	X30	Y30	Z30	X31	Y31	Z31	X32	Y32	Z32	X33	Y33	Z33	X34	Y34	Z34	X35	Y35	Z35	X36	Y36	Z36	X37	Y37	Z37	X38	Y38	Z38	X39	Y39	Z39	

114	0.942	1163.36462	1451.26050	285.15042	1002.13953	1550.32935	299.13477	1053.87061	1532.79724	454.72189	1025.97827	1544.53223	158.93349	1198.28076	1291.40271	287.02359	920.02673	1331.56812	301.50937	1115.63135	1028.85632	420.33478	1118.46130	1020.74268	147.76796	925.54785	1049.19727	339.81567	921.27301	1042.95300	236.77377	1087.06152	852.43030	90.49947	1189.66821	641.94116	95.55695	1230.29297	764.94879	141.63841	1178.71606	420.77124	93.04753	1104.86243	237.59419	141.56403	1182.98181	317.85883	166.41513	1045.32166	827.66754	461.51523	1045.45215	588.39667	422.62225	1141.43677	743.73621	399.63608	1011.35620	430.29800	419.38168	988.30933	178.12195	367.57974	898.42511	68.42091	302.00104	1213.77869	50.31748	336.77325	1119.37842	36.24106	277.32928	1107.11731	29.26284	395.09952	1053.85181	30.47394	381.52216	1081.65552	96.92111	328.12610	1164.11072	38.26323	285.06458	1157.43457	35.30665	388.28860	996.63123	145.16380	214.08809	1284.46899	55.58394	140.97057	1194.96265	58.39822	213.57245	1171.31604	49.16714	102.55421	1122.04431	64.67377	119.43288	1180.18591	123.78343	162.70604	1234.36243	49.28828	201.76204	1216.01135	48.92903	99.37773	923.41046	1046.07520	288.29471	1060.49524	301.01572	343.10556 
115	0.950	1171.10229	1450.82361	285.32892	1010.02820	1550.26746	299.41476	1061.75000	1532.90076	454.99435	1033.88879	1544.46289	159.20953	1205.55151	1290.90771	287.12445	927.58539	1331.72583	301.67175	1122.60205	1028.52734	420.48120	1125.58984	1020.46277	147.79869	932.62408	1049.31519	339.82425	928.40265	1043.08789	236.70370	1095.38501	851.85535	88.22621	1197.72852	641.85016	96.81422	1237.46729	764.98987	142.83539	1192.58203	419.35825	93.86857	1126.30469	232.71698	141.74556	1201.20471	315.68988	166.62285	1050.74475	827.62042	461.27649	1048.28076	588.40540	422.24463	1145.78748	742.59961	399.23782	1012.85175	430.39365	418.98846	988.88983	178.42656	367.55237	898.53693	68.70692	302.36115	1213.33093	49.60821	336.33191	1119.09619	36.11813	277.20074	1107.16504	29.28581	395.08759	1053.82910	30.53505	381.55563	1081.47644	96.99175	327.82297	1163.53223	37.83217	284.68488	1156.95886	34.94823	387.91754	1022.65198	135.40184	214.07788	1313.88147	58.08134	139.60278	1224.57800	56.98622	212.46367	1200.25842	46.91143	101.27840	1150.74609	60.76895	118.49627	1206.54626	121.65504	161.87939	1264.27185	49.56521	200.53111	1245.63672	48.63116	98.20175	930.51337	1046.20154	288.26398	1062.06177	301.56638	343.28488 
116	0.958	1178.76062	1450.34802	285.50110	1018.05414	1550.11548	299.60468	1069.66431	1532.82654	455.15036	1041.88306	1544.28833	159.35954	1213.00989	1290.30640	287.32965	935.27637	1331.72900	301.73105	1129.47485	1028.03577	420.58994	1132.97217	1020.11066	147.77698	939.72430	1049.35754	339.53479	935.67908	1043.11182	236.35236	1103.10986	850.99365	87.00861	1205.48889	641.41705	98.26030	1244.39624	764.70551	144.00813	1206.24109	417.73080	94.69026	1147.83240	228.15968	141.64618	1219.30212	313.84491	166.80681	1056.17786	827.71387	461.13837	1051.10156	588.43341	421.84085	1150.15247	741.35687	398.67438	1014.71832	430.73990	418.65112	989.36108	178.59322	367.46469	898.55090	68.70332	302.15329	1213.19006	49.34901	336.12747	1119.39893	35.86499	277.02457	1107.10437	29.34908	395.11874	1053.82776	30.56442	381.59061	1081.41675	96.87888	327.18823	1163.49377	37.49540	284.39960	1156.68176	34.90337	387.62457	1048.71130	126.13382	214.09521	1342.65381	60.89819	137.77136	1254.26501	56.55416	211.47931	1229.32910	44.87878	100.10182	1179.59302	57.09658	117.51990	1232.73865	120.05594	160.74834	1294.03918	50.68977	199.23935	1274.44409	48.45848	97.10957	937.70172	1046.23474	287.94357	1062.67627	301.17905	342.65735 
117	0.967	1186.51331	1449.67456	285.44733	1026.00757	1549.89429	299.64215	1077.54126	1532.70642	455.10229	1049.97412	1543.96521	159.43733	1220.52039	1289.54492	287.45639	942.99255	1331.60498	301.80127	1136.43481	1027.39990	420.52878	1140.36694	1019.77380	147.66493	946.88361	1049.35303	339.17365	943.00287	1043.12476	235.99327	1109.87402	850.07898	87.42404	1212.84387	640.74457	99.73123	1251.30566	764.08417	145.22205	1219.40662	415.66620	95.43965	1169.49316	223.58073	141.75340	1237.29907	311.97021	166.91641	1061.54810	827.61438	460.99530	1054.18372	588.39386	421.42874	1154.60632	740.16895	398.13596	1016.62518	430.88699	418.27838	989.87390	178.78419	367.35794	898.24445	68.66435	302.05304	1213.38672	49.40867	336.08286	1118.70459	35.47031	276.94711	1107.09668	29.35507	395.12402	1053.82227	30.52431	381.52539	1081.49878	96.68347	327.48819	1163.51587	37.30204	284.58203	1157.09839	35.03356	387.83990	1074.94568	117.02825	214.32912	1371.11426	64.15285	135.84085	1283.32654	55.92904	210.02644	1258.52576	44.87973	98.22755	1208.51111	52.82539	116.90977	1259.25793	118.62106	159.81363	1323.24255	51.55197	197.44785	1303.10767	49.96704	95.41102	944.94324	1046.23889	287.58347	1063.24255	300.14990	341.91571 
118	0.975	1194.23218	1448.94775	285.38687	1033.96130	1549.40869	299.64737	1085.44080	1532.49561	454.98529	1058.24524	1543.51343	159.36185	1227.97241	1288.70349	287.36380	950.71814	1331.40125	301.73129	1143.42981	1026.91675	420.55795	1147.86694	1019.30157	147.49539	954.10040	1049.29968	338.80118	950.40936	1042.97192	235.53264	1116.99866	849.23865	87.42111	1219.78259	640.07068	101.02895	1258.13184	763.25458	146.52849	1232.36511	413.66702	96.66877	1191.09009	219.13776	141.87636	1255.09192	309.98108	166.87500	1067.03210	827.32202	460.62241	1057.32739	588.20514	421.00778	1159.09363	738.71454	397.13693	1018.74811	430.99045	417.90826	990.44714	178.93750	367.22775	898.66650	68.24973	301.50015	1213.24438	48.91810	335.82315	1118.64282	35.25390	276.82520	1107.06335	29.31651	395.03210	1053.85522	30.53249	381.54160	1081.51501	96.63057	327.21564	1163.31604	36.92113	284.35236	1156.92432	34.79436	387.61481	1102.07056	108.45145	213.68675	1399.47009	67.81909	133.99142	1312.42444	55.67660	208.54433	1287.45313	44.37939	96.84732	1237.60498	49.62381	116.14935	1285.44897	117.67564	158.51595	1352.43396	52.95160	195.73660	1331.87231	51.24083	93.78697	952.25488	1046.13574	287.16690	1064.97888	300.09091	341.76743 
119	0.983	1202.08154	1448.15356	285.24667	1042.09937	1548.94043	299.51419	1093.41138	1532.17273	454.87119	1066.41235	1542.88770	159.37274	1235.45520	1287.76599	287.18460	958.57751	1331.15820	301.56326	1150.50208	1026.25684	420.48114	1155.42151	1018.94128	147.23676	961.41479	1049.16711	338.30469	957.85498	1042.70093	235.01039	1124.34729	848.23688	87.32407	1226.39563	638.91010	102.67178	1264.64648	762.14911	147.58730	1245.11584	411.55447	97.88730	1212.77319	215.34419	141.94745	1272.80383	308.69580	167.14096	1072.41675	826.85437	460.34683	1060.64734	588.05011	420.57550	1163.79150	737.79376	396.81808	1020.97852	431.05539	417.57339	991.13373	179.00504	367.03705	898.70844	68.40596	301.45639	1213.17590	48.79778	335.85611	1118.64905	35.14951	276.71298	1107.04199	29.29629	395.08252	1053.88879	30.43700	381.44897	1081.48340	96.57066	327.02188	1163.32117	36.79992	284.31427	1156.76904	34.72727	387.56781	1128.98938	101.06033	213.69807	1427.58130	72.01356	132.18036	1341.28271	56.07500	206.96750	1316.25659	44.37511	95.34233	1266.11414	47.97060	114.72055	1311.83362	117.18370	157.64203	1381.36511	54.99081	193.98802	1360.55066	53.02143	92.09435	959.63489	1045.93396	286.65753	1066.47009	299.91129	341.39960 
120	0.992	1210.04089	1447.36829	285.20337	1050.21252	1548.41992	299.36533	1101.44617	1531.84607	454.79092	1074.53735	1542.40576	159.27548	1243.12366	1286.90564	287.15344	966.38086	1330.79053	301.40790	1156.53918	1025.86072	421.12494	1163.48474	1017.77466	147.82286	968.06451	1048.82532	337.57532	965.48822	1042.39026	234.37790	1131.55701	847.43433	87.14692	1232.82556	637.65662	104.58786	1271.08508	760.71289	148.75172	1257.79944	410.37762	98.98064	1234.35742	211.92159	141.97461	1290.53906	307.62332	167.52470	1077.90430	826.57593	460.11493	1064.18945	587.92572	420.24237	1168.74097	736.88422	396.48734	1023.30719	431.12274	417.26929	991.86407	179.23926	366.93011	898.82416	68.41908	301.27789	1213.22595	48.67833	335.81839	1118.79126	34.80517	276.47870	1107.11487	29.25259	395.06967	1054.46399	30.74291	381.68857	1081.51514	96.32542	326.58725	1163.49084	36.51599	284.19958	1156.71985	34.68869	387.44363	1156.35718	93.56508	213.39445	1455.12109	76.82490	130.46404	1370.09729	57.14082	205.73952	1344.94421	44.55029	94.43779	1294.80566	46.05045	113.86999	1337.93127	117.26401	156.68655	1410.06824	57.77252	192.53773	1388.70508	55.04385	90.77520	966.77637	1045.60779	285.97662	1067.62390	299.16248	340.79617 
